<svg width="11" height="17" viewBox="0 0 11 17" fill="none" xmlns="http://www.w3.org/2000/svg">
<path d="M4.634 16.15C3.53 16.15 2.747 15.901 2.285 15.403C1.823 14.911 1.592 14.086 1.592 12.928V9.922L0.638 9.562C0.314 9.418 0.152 9.172 0.152 8.824V8.32C0.152 7.972 0.314 7.726 0.638 7.582L1.592 7.204V4.198C1.592 3.376 1.691 2.716 1.889 2.218C2.087 1.72 2.408 1.36 2.852 1.138C3.296 0.909999 3.89 0.795999 4.634 0.795999C4.808 0.795999 4.955 0.858999 5.075 0.985C5.201 1.105 5.264 1.252 5.264 1.426C5.264 1.594 5.201 1.741 5.075 1.867C4.955 1.993 4.808 2.056 4.634 2.056C4.268 2.056 3.968 2.086 3.734 2.146C3.506 2.2 3.326 2.305 3.194 2.461C3.068 2.611 2.978 2.827 2.924 3.109C2.876 3.391 2.852 3.754 2.852 4.198V7.528C2.852 7.912 2.69 8.158 2.366 8.266L0.836 8.788V8.356L2.366 8.86C2.69 8.968 2.852 9.214 2.852 9.598V12.928C2.852 13.474 2.897 13.888 2.987 14.17C3.077 14.452 3.248 14.641 3.5 14.737C3.758 14.839 4.136 14.89 4.634 14.89C4.808 14.89 4.955 14.95 5.075 15.07C5.201 15.196 5.264 15.346 5.264 15.52C5.264 15.688 5.201 15.835 5.075 15.961C4.955 16.087 4.808 16.15 4.634 16.15ZM6.26117 16.15C6.09317 16.15 5.94617 16.087 5.82017 15.961C5.69417 15.835 5.63117 15.688 5.63117 15.52C5.63117 15.346 5.69417 15.196 5.82017 15.07C5.94617 14.95 6.09317 14.89 6.26117 14.89C6.75917 14.89 7.13417 14.839 7.38617 14.737C7.64417 14.641 7.81817 14.452 7.90817 14.17C7.99817 13.888 8.04317 13.474 8.04317 12.928V9.598C8.04317 9.214 8.20517 8.968 8.52917 8.86L10.0592 8.356V8.788L8.52917 8.266C8.20517 8.158 8.04317 7.912 8.04317 7.528V4.198C8.04317 3.754 8.01617 3.391 7.96217 3.109C7.91417 2.827 7.82417 2.611 7.69217 2.461C7.56617 2.305 7.38617 2.2 7.15217 2.146C6.92417 2.086 6.62717 2.056 6.26117 2.056C6.09317 2.056 5.94617 1.993 5.82017 1.867C5.69417 1.741 5.63117 1.594 5.63117 1.426C5.63117 1.252 5.69417 1.105 5.82017 0.985C5.94617 0.858999 6.09317 0.795999 6.26117 0.795999C7.00517 0.795999 7.59917 0.909999 8.04317 1.138C8.48717 1.36 8.80817 1.72 9.00617 2.218C9.20417 2.716 9.30317 3.376 9.30317 4.198V7.204L10.2572 7.582C10.5812 7.726 10.7432 7.972 10.7432 8.32V8.824C10.7432 9.172 10.5812 9.418 10.2572 9.562L9.30317 9.922V12.928C9.30317 14.086 9.07217 14.911 8.61017 15.403C8.15417 15.901 7.37117 16.15 6.26117 16.15Z" fill="white"/>
</svg>
